<svg width="72" height="22" viewBox="0 0 72 22" fill="none" xmlns="http://www.w3.org/2000/svg">
<path opacity="0.9" d="M0.983375 21H-0.0166249V22H0.983375V21ZM0.983375 0.136V-0.864H-0.0166249V0.136H0.983375ZM12.0234 0.615999L11.7557 1.57952L11.7641 1.58183L11.7724 1.584L12.0234 0.615999ZM14.7754 2.184L14.0373 2.85877H14.0373L14.7754 2.184ZM15.0634 8.04L14.1862 7.55967L14.1822 7.56718L15.0634 8.04ZM13.0794 9.832L12.7283 8.89567L12.0794 9.139V9.832H13.0794ZM13.0794 9.96H12.0794V10.7332L12.8277 10.9278L13.0794 9.96ZM15.7354 11.592L14.9803 12.2477L14.9895 12.2583L14.999 12.2686L15.7354 11.592ZM15.7354 18.344L16.5126 18.9732L15.7354 18.344ZM12.8234 20.36L13.1545 21.3036L13.1618 21.301L13.1691 21.2983L12.8234 20.36ZM5.68738 8.488H4.68738V9.488H5.68738V8.488ZM10.3914 7.816L9.74818 7.05029L9.74046 7.05678L9.73287 7.06342L10.3914 7.816ZM10.3914 4.296L9.85232 5.13827L9.85232 5.13827L10.3914 4.296ZM5.68738 3.784V2.784H4.68738V3.784H5.68738ZM5.68738 17.352H4.68738V18.352H5.68738V17.352ZM11.2554 12.584L10.7203 13.4288L10.7305 13.4353L10.7409 13.4415L11.2554 12.584ZM5.68738 11.976V10.976H4.68738V11.976H5.68738ZM1.98338 21V0.136H-0.0166249V21H1.98338ZM0.983375 1.136H8.11938V-0.864H0.983375V1.136ZM8.11938 1.136C9.49812 1.136 10.7071 1.28823 11.7557 1.57952L12.291 -0.347519C11.0357 -0.696231 9.64197 -0.864 8.11938 -0.864V1.136ZM11.7724 1.584C12.7707 1.84282 13.5069 2.27856 14.0373 2.85877L15.5134 1.50923C14.6785 0.596107 13.58 -0.0134907 12.2743 -0.351997L11.7724 1.584ZM14.0373 2.85877C14.5024 3.36746 14.7994 4.14202 14.7994 5.32H16.7994C16.7994 3.80998 16.4136 2.49387 15.5134 1.50923L14.0373 2.85877ZM14.7994 5.32C14.7994 6.05103 14.6056 6.79389 14.1863 7.55968L15.9405 8.52031C16.5024 7.49411 16.7994 6.42364 16.7994 5.32H14.7994ZM14.1822 7.56718C13.8165 8.24878 13.3336 8.66866 12.7283 8.89567L13.4305 10.7683C14.5318 10.3553 15.3716 9.58055 15.9445 8.51282L14.1822 7.56718ZM12.0794 9.832V9.96H14.0794V9.832H12.0794ZM12.8277 10.9278C13.7044 11.1558 14.4125 11.5938 14.9803 12.2477L16.4904 10.9363C15.6503 9.96891 14.5876 9.3189 13.331 8.99218L12.8277 10.9278ZM14.999 12.2686C15.5097 12.8243 15.8234 13.6441 15.8234 14.856H17.8234C17.8234 13.2946 17.4118 11.9384 16.4717 10.9154L14.999 12.2686ZM15.8234 14.856C15.8234 16.1127 15.5074 17.0363 14.9581 17.7148L16.5126 18.9732C17.414 17.8597 17.8234 16.4579 17.8234 14.856H15.8234ZM14.9581 17.7148C14.3598 18.454 13.5461 19.028 12.4777 19.4217L13.1691 21.2983C14.5327 20.796 15.6603 20.026 16.5126 18.9732L14.9581 17.7148ZM12.4923 19.4164C11.3995 19.7998 10.1486 20 8.72738 20V22C10.3355 22 11.8153 21.7735 13.1545 21.3036L12.4923 19.4164ZM8.72738 20H0.983375V22H8.72738V20ZM5.68738 9.488H7.89538V7.488H5.68738V9.488ZM7.89538 9.488C9.13487 9.488 10.2656 9.25478 11.0499 8.56858L9.73287 7.06342C9.49311 7.27322 8.95988 7.488 7.89538 7.488V9.488ZM11.0346 8.5817C11.812 7.92865 12.1914 7.04185 12.1914 6.024H10.1914C10.1914 6.49948 10.0374 6.80735 9.74818 7.05029L11.0346 8.5817ZM12.1914 6.024C12.1914 4.98061 11.8316 4.03048 10.9304 3.45373L9.85232 5.13827C10.0178 5.24419 10.1914 5.44605 10.1914 6.024H12.1914ZM10.9304 3.45373C10.1556 2.95786 9.10195 2.784 7.92737 2.784V4.784C8.97146 4.784 9.56045 4.95147 9.85232 5.13827L10.9304 3.45373ZM7.92737 2.784H5.68738V4.784H7.92737V2.784ZM4.68738 3.784V8.488H6.68738V3.784H4.68738ZM5.68738 18.352H8.34338V16.352H5.68738V18.352ZM8.34338 18.352C9.72551 18.352 10.9428 18.106 11.8355 17.4567C12.7875 16.7644 13.2154 15.7304 13.2154 14.536H11.2154C11.2154 15.2189 10.9979 15.5929 10.6592 15.8393C10.2613 16.1286 9.54257 16.352 8.34338 16.352V18.352ZM13.2154 14.536C13.2154 13.361 12.7835 12.3347 11.7699 11.7265L10.7409 13.4415C11.0073 13.6013 11.2154 13.8764 11.2154 14.536H13.2154ZM11.7904 11.7392C10.9126 11.1832 9.71415 10.976 8.34338 10.976V12.976C9.57527 12.976 10.3181 13.1741 10.7203 13.4288L11.7904 11.7392ZM8.34338 10.976H5.68738V12.976H8.34338V10.976ZM4.68738 11.976V17.352H6.68738V11.976H4.68738ZM22.9184 21H21.9184V22H22.9184V21ZM22.9184 0.136V-0.864H21.9184V0.136H22.9184ZM33.9584 0.615999L33.6907 1.57952L33.6991 1.58183L33.7074 1.584L33.9584 0.615999ZM36.7104 2.184L35.9723 2.85877L36.7104 2.184ZM36.9984 8.04L36.1212 7.55967L36.1172 7.56718L36.9984 8.04ZM35.0144 9.832L34.6632 8.89567L34.0144 9.139V9.832H35.0144ZM35.0144 9.96H34.0144V10.7332L34.7627 10.9278L35.0144 9.96ZM37.6704 11.592L36.9153 12.2477L36.9245 12.2583L36.934 12.2686L37.6704 11.592ZM37.6704 18.344L38.4476 18.9732L37.6704 18.344ZM34.7584 20.36L35.0895 21.3036L35.0968 21.301L35.1041 21.2983L34.7584 20.36ZM27.6224 8.488H26.6224V9.488H27.6224V8.488ZM32.3264 7.816L31.6832 7.05029L31.6755 7.05678L31.6679 7.06342L32.3264 7.816ZM32.3264 4.296L31.7873 5.13827L31.7873 5.13827L32.3264 4.296ZM27.6224 3.784V2.784H26.6224V3.784H27.6224ZM27.6224 17.352H26.6224V18.352H27.6224V17.352ZM33.1904 12.584L32.6553 13.4288L32.6655 13.4353L32.6759 13.4415L33.1904 12.584ZM27.6224 11.976V10.976H26.6224V11.976H27.6224ZM23.9184 21V0.136H21.9184V21H23.9184ZM22.9184 1.136H30.0544V-0.864H22.9184V1.136ZM30.0544 1.136C31.4331 1.136 32.6421 1.28823 33.6907 1.57952L34.226 -0.347519C32.9707 -0.696231 31.577 -0.864 30.0544 -0.864V1.136ZM33.7074 1.584C34.7057 1.84282 35.4419 2.27856 35.9723 2.85877L37.4484 1.50923C36.6135 0.596107 35.515 -0.0134907 34.2093 -0.351997L33.7074 1.584ZM35.9723 2.85877C36.4374 3.36746 36.7344 4.14202 36.7344 5.32H38.7344C38.7344 3.80998 38.3486 2.49387 37.4484 1.50923L35.9723 2.85877ZM36.7344 5.32C36.7344 6.05103 36.5406 6.79389 36.1213 7.55968L37.8755 8.52031C38.4374 7.49411 38.7344 6.42364 38.7344 5.32H36.7344ZM36.1172 7.56718C35.7515 8.24878 35.2686 8.66866 34.6632 8.89567L35.3655 10.7683C36.4668 10.3553 37.3066 9.58055 37.8795 8.51282L36.1172 7.56718ZM34.0144 9.832V9.96H36.0144V9.832H34.0144ZM34.7627 10.9278C35.6395 11.1558 36.3475 11.5938 36.9153 12.2477L38.4254 10.9363C37.5853 9.96891 36.5226 9.3189 35.266 8.99218L34.7627 10.9278ZM36.934 12.2686C37.4447 12.8243 37.7584 13.6441 37.7584 14.856H39.7584C39.7584 13.2946 39.3468 11.9384 38.4067 10.9154L36.934 12.2686ZM37.7584 14.856C37.7584 16.1127 37.4424 17.0363 36.8931 17.7148L38.4476 18.9732C39.349 17.8597 39.7584 16.4579 39.7584 14.856H37.7584ZM36.8931 17.7148C36.2948 18.454 35.4811 19.028 34.4127 19.4217L35.1041 21.2983C36.4677 20.796 37.5953 20.026 38.4476 18.9732L36.8931 17.7148ZM34.4273 19.4164C33.3345 19.7998 32.0836 20 30.6624 20V22C32.2705 22 33.7503 21.7735 35.0895 21.3036L34.4273 19.4164ZM30.6624 20H22.9184V22H30.6624V20ZM27.6224 9.488H29.8304V7.488H27.6224V9.488ZM29.8304 9.488C31.0699 9.488 32.2006 9.25478 32.9849 8.56858L31.6679 7.06342C31.4281 7.27322 30.8949 7.488 29.8304 7.488V9.488ZM32.9696 8.5817C33.747 7.92865 34.1264 7.04185 34.1264 6.024H32.1264C32.1264 6.49948 31.9724 6.80735 31.6832 7.05029L32.9696 8.5817ZM34.1264 6.024C34.1264 4.98061 33.7666 4.03048 32.8654 3.45373L31.7873 5.13827C31.9528 5.24419 32.1264 5.44605 32.1264 6.024H34.1264ZM32.8654 3.45373C32.0906 2.95786 31.037 2.784 29.8624 2.784V4.784C30.9065 4.784 31.4954 4.95147 31.7873 5.13827L32.8654 3.45373ZM29.8624 2.784H27.6224V4.784H29.8624V2.784ZM26.6224 3.784V8.488H28.6224V3.784H26.6224ZM27.6224 18.352H30.2784V16.352H27.6224V18.352ZM30.2784 18.352C31.6605 18.352 32.8778 18.106 33.7705 17.4567C34.7225 16.7644 35.1504 15.7304 35.1504 14.536H33.1504C33.1504 15.2189 32.9329 15.5929 32.5942 15.8393C32.1963 16.1286 31.4776 16.352 30.2784 16.352V18.352ZM35.1504 14.536C35.1504 13.361 34.7185 12.3347 33.7049 11.7265L32.6759 13.4415C32.9423 13.6013 33.1504 13.8764 33.1504 14.536H35.1504ZM33.7254 11.7392C32.8476 11.1832 31.6491 10.976 30.2784 10.976V12.976C31.5103 12.976 32.2531 13.1741 32.6553 13.4288L33.7254 11.7392ZM30.2784 10.976H27.6224V12.976H30.2784V10.976ZM26.6224 11.976V17.352H28.6224V11.976H26.6224ZM43.7654 14.568H42.7654V15.568H43.7654V14.568ZM43.7654 11.24V10.24H42.7654V11.24H43.7654ZM51.6374 11.24H52.6374V10.24H51.6374V11.24ZM51.6374 14.568V15.568H52.6374V14.568H51.6374ZM44.7654 14.568V11.24H42.7654V14.568H44.7654ZM43.7654 12.24H51.6374V10.24H43.7654V12.24ZM50.6374 11.24V14.568H52.6374V11.24H50.6374ZM51.6374 13.568H43.7654V15.568H51.6374V13.568ZM60.3744 20.68L60.7771 19.7647L60.3744 20.68ZM57.8464 18.728L57.0367 19.315L57.0439 19.3247L57.8464 18.728ZM57.9104 12.776L57.154 12.1218L57.1489 12.1278L57.1439 12.1338L57.9104 12.776ZM60.3744 10.824L60.845 11.7064L61.3744 11.424V10.824H60.3744ZM60.3744 10.696H61.3744V10.1987L60.9778 9.89859L60.3744 10.696ZM58.4224 8.648L57.5903 9.2027L58.4224 8.648ZM58.4864 2.92L59.3185 3.47474L59.3248 3.46499L58.4864 2.92ZM60.7904 0.967999L60.3751 0.0583105L60.7904 0.967999ZM68.6304 1.832L67.9591 2.57324L67.9669 2.58019L68.6304 1.832ZM69.5264 8.488L70.3402 9.06929L70.3477 9.0584L69.5264 8.488ZM67.6704 10.312L67.1157 9.47995L66.6704 9.77682V10.312H67.6704ZM67.6704 10.44H66.6704V11.0347L67.1929 11.3186L67.6704 10.44ZM70.1664 12.488L69.3933 13.1223L70.1664 12.488ZM70.2944 18.632L69.4751 18.0585V18.0585L70.2944 18.632ZM67.7664 20.648L67.3553 19.7364L67.3485 19.7395L67.7664 20.648ZM65.2704 9.16L64.9088 10.0924L65.5651 10.3468L66.0261 9.81493L65.2704 9.16ZM65.8464 4.296L65.0918 4.95218L65.107 4.96969L65.123 4.98647L65.8464 4.296ZM62.4544 4.136L61.8036 3.37674L62.4544 4.136ZM62.7424 7.848L62.151 8.6544V8.65441L62.7424 7.848ZM66.0384 17.512L66.6591 18.296L66.6689 18.2883L66.6786 18.2802L66.0384 17.512ZM66.2624 14.12L65.5171 14.7868L65.5261 14.7968L65.5354 14.8066L66.2624 14.12ZM64.7584 13.064L64.3112 13.9584L64.3232 13.9645L64.3355 13.9702L64.7584 13.064ZM62.5184 12.04L62.9095 11.1197L62.3214 10.8697L61.8475 11.2985L62.5184 12.04ZM61.3984 13.512L62.2788 13.9861L62.2825 13.9792L62.2861 13.9723L61.3984 13.512ZM61.8784 17.384L61.2408 18.1544L61.2488 18.161L61.257 18.1675L61.8784 17.384ZM63.9904 20.384C62.7639 20.384 61.6989 20.1703 60.7771 19.7647L59.9716 21.5953C61.1832 22.1284 62.5288 22.384 63.9904 22.384V20.384ZM60.7771 19.7647C59.849 19.3563 59.1518 18.8077 58.6488 18.1313L57.0439 19.3247C57.7783 20.3123 58.7664 21.065 59.9716 21.5953L60.7771 19.7647ZM58.656 18.141C58.1653 17.4642 57.9184 16.7004 57.9184 15.816H55.9184C55.9184 17.1076 56.2901 18.2851 57.0368 19.315L58.656 18.141ZM57.9184 15.816C57.9184 14.7642 58.1953 13.993 58.6769 13.4182L57.1439 12.1338C56.3028 13.1377 55.9184 14.3932 55.9184 15.816H57.9184ZM58.6667 13.4302C59.2656 12.7377 59.9888 12.163 60.845 11.7064L59.9038 9.94165C58.84 10.509 57.9205 11.2356 57.154 12.1218L58.6667 13.4302ZM61.3744 10.824V10.696H59.3744V10.824H61.3744ZM60.9778 9.89859C60.2712 9.36389 59.7 8.76164 59.2544 8.0933L57.5903 9.2027C58.1688 10.0704 58.8988 10.8334 59.7709 11.4934L60.9778 9.89859ZM59.2544 8.0933C58.8682 7.51398 58.6544 6.79678 58.6544 5.896H56.6544C56.6544 7.12855 56.9525 8.24602 57.5903 9.2027L59.2544 8.0933ZM58.6544 5.896C58.6544 4.91057 58.8892 4.11851 59.3184 3.4747L57.6543 2.3653C56.9742 3.38548 56.6544 4.57743 56.6544 5.896H58.6544ZM59.3248 3.46499C59.7696 2.78066 60.3863 2.25174 61.2057 1.87769L60.3751 0.0583105C59.2318 0.580261 58.3125 1.35267 57.6479 2.37501L59.3248 3.46499ZM61.2057 1.87769C62.0367 1.49832 63.0113 1.296 64.1504 1.296V-0.704C62.7721 -0.704 61.5068 -0.45832 60.3751 0.0583105L61.2057 1.87769ZM64.1504 1.296C65.8147 1.296 67.0503 1.75012 67.9591 2.5732L69.3017 1.09079C67.9491 -0.134122 66.198 -0.704 64.1504 -0.704V1.296ZM67.9669 2.58019C68.8575 3.36995 69.3264 4.42793 69.3264 5.864H71.3264C71.3264 3.9294 70.6646 2.29938 69.2939 1.08381L67.9669 2.58019ZM69.3264 5.864C69.3264 6.65214 69.1161 7.32566 68.705 7.9176L70.3477 9.0584C71.0033 8.11434 71.3264 7.03853 71.3264 5.864H69.3264ZM68.7126 7.90676C68.2438 8.56318 67.7106 9.08331 67.1157 9.47995L68.2251 11.1441C69.0381 10.602 69.7423 9.90615 70.3401 9.06924L68.7126 7.90676ZM66.6704 10.312V10.44H68.6704V10.312H66.6704ZM67.1929 11.3186C68.0652 11.7927 68.7956 12.3938 69.3933 13.1223L70.9395 11.8537C70.1719 10.9182 69.2382 10.1539 68.1479 9.56137L67.1929 11.3186ZM69.3933 13.1223C69.8957 13.7346 70.1904 14.5802 70.1904 15.752H72.1904C72.1904 14.2358 71.8024 12.9054 70.9395 11.8537L69.3933 13.1223ZM70.1904 15.752C70.1904 16.6188 69.9518 17.3776 69.4751 18.0585L71.1136 19.2055C71.8316 18.1798 72.1904 17.0186 72.1904 15.752H70.1904ZM69.4751 18.0585C68.9953 18.7441 68.3036 19.3087 67.3553 19.7364L68.1775 21.5596C69.4051 21.0059 70.3988 20.2266 71.1136 19.2055L69.4751 18.0585ZM67.3485 19.7395C66.44 20.1574 65.3299 20.384 63.9904 20.384V22.384C65.5522 22.384 66.9594 22.1199 68.1843 21.5565L67.3485 19.7395ZM66.0261 9.81493C66.9763 8.71847 67.5184 7.50249 67.5184 6.184H65.5184C65.5184 6.91351 65.2284 7.68153 64.5147 8.50507L66.0261 9.81493ZM67.5184 6.184C67.5184 5.19642 67.2322 4.29954 66.5697 3.60552L65.123 4.98647C65.3566 5.23113 65.5184 5.59291 65.5184 6.184H67.5184ZM66.601 3.63982C65.9495 2.89067 65.0541 2.56 64.0544 2.56V4.56C64.5906 4.56 64.8899 4.71999 65.0918 4.95218L66.601 3.63982ZM64.0544 2.56C63.2096 2.56 62.4422 2.82939 61.8036 3.37674L63.1052 4.89526C63.3626 4.67461 63.6618 4.56 64.0544 4.56V2.56ZM61.8036 3.37674C61.0654 4.00948 60.7824 4.91907 60.7824 5.896H62.7824C62.7824 5.29427 62.9474 5.03052 63.1052 4.89526L61.8036 3.37674ZM60.7824 5.896C60.7824 7.02846 61.2399 7.98625 62.151 8.6544L63.3337 7.0416C62.9649 6.77108 62.7824 6.42754 62.7824 5.896H60.7824ZM62.151 8.65441C62.8842 9.19206 63.8125 9.66724 64.9088 10.0924L65.6319 8.22764C64.6376 7.84209 63.8806 7.4426 63.3337 7.04159L62.151 8.65441ZM64.0864 19.12C65.0524 19.12 65.9358 18.8687 66.6591 18.296L65.4177 16.728C65.117 16.966 64.699 17.12 64.0864 17.12V19.12ZM66.6786 18.2802C67.4796 17.6127 67.8064 16.6523 67.8064 15.592H65.8064C65.8064 16.2384 65.6212 16.558 65.3982 16.7438L66.6786 18.2802ZM67.8064 15.592C67.8064 14.7754 67.5507 14.0277 66.9894 13.4334L65.5354 14.8066C65.6994 14.9803 65.8064 15.2139 65.8064 15.592H67.8064ZM67.0076 13.4532C66.5322 12.9219 65.9088 12.4974 65.1813 12.1578L64.3355 13.9702C64.8879 14.228 65.2672 14.5075 65.5171 14.7868L67.0076 13.4532ZM65.2056 12.1696C64.5427 11.8381 63.7766 11.4882 62.9095 11.1197L62.1272 12.9603C62.9668 13.3172 63.694 13.6499 64.3112 13.9584L65.2056 12.1696ZM61.8475 11.2985C61.3046 11.7896 60.8601 12.3776 60.5106 13.0517L62.2861 13.9723C62.534 13.4944 62.8361 13.1011 63.1893 12.7815L61.8475 11.2985ZM60.5179 13.0379C60.1423 13.7355 59.9504 14.4847 59.9504 15.272H61.9504C61.9504 14.8219 62.0571 14.3978 62.2788 13.9861L60.5179 13.0379ZM59.9504 15.272C59.9504 16.427 60.3642 17.4289 61.2408 18.1544L62.5159 16.6136C62.1552 16.3151 61.9504 15.909 61.9504 15.272H59.9504ZM61.257 18.1675C62.0671 18.81 63.0269 19.12 64.0864 19.12V17.12C63.4392 17.12 62.927 16.9393 62.4998 16.6005L61.257 18.1675Z" fill="#312D74"/>
</svg>
