<svg width="73" height="21" viewBox="0 0 73 21" fill="none" xmlns="http://www.w3.org/2000/svg">
<path opacity="0.9" d="M0.639625 21H0.139625V21.5H0.639625V21ZM0.639625 0.136V-0.364H0.139625V0.136H0.639625ZM13.7916 0.136H14.2916V-0.364H13.7916V0.136ZM13.7916 4.104V4.604H14.2916V4.104H13.7916ZM5.34363 4.104V3.604H4.84363V4.104H5.34363ZM5.34363 8.936H4.84363V9.436H5.34363V8.936ZM12.5756 8.936H13.0756V8.436H12.5756V8.936ZM12.5756 12.904V13.404H13.0756V12.904H12.5756ZM5.34363 12.904V12.404H4.84363V12.904H5.34363ZM5.34363 21V21.5H5.84363V21H5.34363ZM1.13963 21V0.136H0.139625V21H1.13963ZM0.639625 0.636H13.7916V-0.364H0.639625V0.636ZM13.2916 0.136V4.104H14.2916V0.136H13.2916ZM13.7916 3.604H5.34363V4.604H13.7916V3.604ZM4.84363 4.104V8.936H5.84363V4.104H4.84363ZM5.34363 9.436H12.5756V8.436H5.34363V9.436ZM12.0756 8.936V12.904H13.0756V8.936H12.0756ZM12.5756 12.404H5.34363V13.404H12.5756V12.404ZM4.84363 12.904V21H5.84363V12.904H4.84363ZM5.34363 20.5H0.639625V21.5H5.34363V20.5ZM19.9809 21H19.4809V21.5H19.9809V21ZM19.9809 0.136V-0.364H19.4809V0.136H19.9809ZM24.6849 0.136H25.1849V-0.364H24.6849V0.136ZM24.6849 21V21.5H25.1849V21H24.6849ZM20.4809 21V0.136H19.4809V21H20.4809ZM19.9809 0.636H24.6849V-0.364H19.9809V0.636ZM24.1849 0.136V21H25.1849V0.136H24.1849ZM24.6849 20.5H19.9809V21.5H24.6849V20.5ZM32.1659 21H31.6659V21.5H32.1659V21ZM32.1659 0.136V-0.364H31.6659V0.136H32.1659ZM36.9979 0.136L37.4406 -0.0963102L37.3002 -0.364H36.9979V0.136ZM42.4379 10.504L42.8948 10.3009L42.8882 10.2861L42.8806 10.2717L42.4379 10.504ZM44.4859 15.112L44.029 15.3151L44.1609 15.612H44.4859V15.112ZM44.6139 15.112V15.612H45.1538L45.1124 15.0737L44.6139 15.112ZM44.2619 11.4L43.7648 11.4544L43.7648 11.4544L44.2619 11.4ZM44.0379 0.136V-0.364H43.5379V0.136H44.0379ZM48.5179 0.136H49.0179V-0.364H48.5179V0.136ZM48.5179 21V21.5H49.0179V21H48.5179ZM43.6859 21L43.2428 21.2317L43.3831 21.5H43.6859V21ZM38.2459 10.6L37.79 10.8054L37.796 10.8188L37.8028 10.8317L38.2459 10.6ZM36.1979 6.056L36.6537 5.85055L36.521 5.556H36.1979V6.056ZM36.0699 6.056V5.556H35.5214L35.572 6.1021L36.0699 6.056ZM36.4219 9.768L35.9241 9.81617L35.925 9.82409L36.4219 9.768ZM36.6459 21V21.5H37.1459V21H36.6459ZM32.6659 21V0.136H31.6659V21H32.6659ZM32.1659 0.636H36.9979V-0.364H32.1659V0.636ZM36.5551 0.36831L41.9951 10.7363L42.8806 10.2717L37.4406 -0.0963102L36.5551 0.36831ZM41.981 10.7071L44.029 15.3151L44.9428 14.9089L42.8948 10.3009L41.981 10.7071ZM44.4859 15.612H44.6139V14.612H44.4859V15.612ZM45.1124 15.0737C45.0266 13.9579 44.9087 12.7151 44.7589 11.3456L43.7648 11.4544C43.9137 12.8155 44.0305 14.0474 44.1153 15.1503L45.1124 15.0737ZM44.7589 11.3456C44.6113 9.99642 44.5379 8.71332 44.5379 7.496H43.5379C43.5379 8.75334 43.6137 10.0729 43.7648 11.4544L44.7589 11.3456ZM44.5379 7.496V0.136H43.5379V7.496H44.5379ZM44.0379 0.636H48.5179V-0.364H44.0379V0.636ZM48.0179 0.136V21H49.0179V0.136H48.0179ZM48.5179 20.5H43.6859V21.5H48.5179V20.5ZM44.1289 20.7683L38.6889 10.3683L37.8028 10.8317L43.2428 21.2317L44.1289 20.7683ZM38.7017 10.3946L36.6537 5.85055L35.742 6.26145L37.79 10.8054L38.7017 10.3946ZM36.1979 5.556H36.0699V6.556H36.1979V5.556ZM35.572 6.1021C35.6787 7.25488 35.7961 8.49291 35.9242 9.81616L36.9195 9.71984C36.7916 8.39776 36.6743 7.16112 36.5677 6.0099L35.572 6.1021ZM35.925 9.82409C36.0724 11.1295 36.1459 12.3908 36.1459 13.608H37.1459C37.1459 12.3506 37.07 11.0518 36.9187 9.7119L35.925 9.82409ZM36.1459 13.608V21H37.1459V13.608H36.1459ZM36.6459 20.5H32.1659V21.5H36.6459V20.5ZM56.0071 21H55.5071V21.5H56.0071V21ZM56.0071 0.136V-0.364H55.5071V0.136H56.0071ZM60.8391 0.136L61.2819 -0.0963102L61.1414 -0.364H60.8391V0.136ZM66.2791 10.504L66.736 10.3009L66.7294 10.2861L66.7219 10.2717L66.2791 10.504ZM68.3271 15.112L67.8702 15.3151L68.0022 15.612H68.3271V15.112ZM68.4551 15.112V15.612H68.9951L68.9537 15.0737L68.4551 15.112ZM68.1031 11.4L67.6061 11.4544L67.6061 11.4544L68.1031 11.4ZM67.8791 0.136V-0.364H67.3791V0.136H67.8791ZM72.3591 0.136H72.8591V-0.364H72.3591V0.136ZM72.3591 21V21.5H72.8591V21H72.3591ZM67.5271 21L67.0841 21.2317L67.2244 21.5H67.5271V21ZM62.0871 10.6L61.6313 10.8054L61.6373 10.8188L61.6441 10.8317L62.0871 10.6ZM60.0391 6.056L60.495 5.85055L60.3622 5.556H60.0391V6.056ZM59.9111 6.056V5.556H59.3627L59.4133 6.1021L59.9111 6.056ZM60.2631 9.768L59.7654 9.81617L59.7663 9.82409L60.2631 9.768ZM60.4871 21V21.5H60.9871V21H60.4871ZM56.5071 21V0.136H55.5071V21H56.5071ZM56.0071 0.636H60.8391V-0.364H56.0071V0.636ZM60.3964 0.36831L65.8364 10.7363L66.7219 10.2717L61.2819 -0.0963102L60.3964 0.36831ZM65.8222 10.7071L67.8702 15.3151L68.784 14.9089L66.736 10.3009L65.8222 10.7071ZM68.3271 15.612H68.4551V14.612H68.3271V15.612ZM68.9537 15.0737C68.8678 13.9579 68.7499 12.7151 68.6002 11.3456L67.6061 11.4544C67.755 12.8155 67.8718 14.0474 67.9566 15.1503L68.9537 15.0737ZM68.6002 11.3456C68.4526 9.99642 68.3791 8.71332 68.3791 7.496H67.3791C67.3791 8.75334 67.455 10.0729 67.6061 11.4544L68.6002 11.3456ZM68.3791 7.496V0.136H67.3791V7.496H68.3791ZM67.8791 0.636H72.3591V-0.364H67.8791V0.636ZM71.8591 0.136V21H72.8591V0.136H71.8591ZM72.3591 20.5H67.5271V21.5H72.3591V20.5ZM67.9702 20.7683L62.5302 10.3683L61.6441 10.8317L67.0841 21.2317L67.9702 20.7683ZM62.543 10.3946L60.495 5.85055L59.5833 6.26145L61.6313 10.8054L62.543 10.3946ZM60.0391 5.556H59.9111V6.556H60.0391V5.556ZM59.4133 6.1021C59.52 7.25488 59.6374 8.49291 59.7655 9.81616L60.7608 9.71984C60.6329 8.39776 60.5156 7.16112 60.409 6.0099L59.4133 6.1021ZM59.7663 9.82409C59.9137 11.1295 59.9871 12.3908 59.9871 13.608H60.9871C60.9871 12.3506 60.9112 11.0518 60.76 9.7119L59.7663 9.82409ZM59.9871 13.608V21H60.9871V13.608H59.9871ZM60.4871 20.5H56.0071V21.5H60.4871V20.5Z" fill="#312D74"/>
</svg>
